<?xml version="1.0" encoding="UTF-8" standalone="no"?>
<svg
   version="1.1"
   id="Layer_1"
   x="0px"
   y="0px"
   viewBox="0 0 512 512"
   xml:space="preserve"
   sodipodi:docname="appiconfg.svg"
   inkscape:version="1.3.2 (091e20e, 2023-11-25, custom)"
   width="512"
   height="512"
   inkscape:export-filename="..\..\..\imgs\App Store\appicon.png"
   inkscape:export-xdpi="96"
   inkscape:export-ydpi="96"
   xmlns:inkscape="http://www.inkscape.org/namespaces/inkscape"
   xmlns:sodipodi="http://sodipodi.sourceforge.net/DTD/sodipodi-0.dtd"
   xmlns="http://www.w3.org/2000/svg"
   xmlns:svg="http://www.w3.org/2000/svg"><defs
   id="defs13" /><sodipodi:namedview
   id="namedview13"
   pagecolor="#434371"
   bordercolor="#eeeeee"
   borderopacity="1"
   inkscape:showpageshadow="0"
   inkscape:pageopacity="0"
   inkscape:pagecheckerboard="0"
   inkscape:deskcolor="#505050"
   inkscape:zoom="1.5878906"
   inkscape:cx="256"
   inkscape:cy="256"
   inkscape:window-width="1920"
   inkscape:window-height="1009"
   inkscape:window-x="-8"
   inkscape:window-y="131"
   inkscape:window-maximized="1"
   inkscape:current-layer="Layer_1"
   inkscape:export-bgcolor="#434371ff" />
<style
   type="text/css"
   id="style1">
	.st1{opacity:0.2;}
	.st2{fill:#231F20;}
	.st3{fill:#DB3A34;}
	.st4{fill:none;stroke:#DB3A34;stroke-width:3;stroke-linecap:round;stroke-miterlimit:10;}
	.st5{fill:none;stroke:#DB3A34;stroke-width:2;stroke-linecap:round;stroke-miterlimit:10;}
	.st6{fill:none;stroke:#DB3A34;stroke-width:3;stroke-linecap:round;stroke-linejoin:round;stroke-miterlimit:10;}
</style>
<g
   id="icon"
   transform="matrix(8.7669676,0,0,8.7669676,-24.905387,-47.340488)"><g
     class="st1"
     id="shadows">
	<circle
   class="st2"
   cx="32"
   cy="24"
   r="2.3"
   id="circle2" />
	<path
   class="st2"
   d="m 35.9,30 c 0.3,0.3 0.7,0.4 1.1,0.4 0.4,0 0.8,-0.1 1.1,-0.4 1.6,-1.6 2.5,-3.7 2.5,-6 0,-2.3 -0.9,-4.4 -2.5,-6 -0.6,-0.6 -1.5,-0.6 -2.1,0 -0.6,0.6 -0.6,1.5 0,2.1 1,1 1.6,2.4 1.6,3.9 0,1.5 -0.6,2.9 -1.6,3.9 -0.7,0.6 -0.7,1.5 -0.1,2.1 z"
   id="path2" />
	<path
   class="st2"
   d="m 43.7,24 c 0,2.5 -1,4.9 -2.8,6.7 -0.6,0.6 -0.6,1.5 0,2.1 0.3,0.3 0.7,0.4 1.1,0.4 0.4,0 0.8,-0.1 1.1,-0.4 2.4,-2.4 3.7,-5.5 3.7,-8.8 0,-3.3 -1.3,-6.5 -3.7,-8.8 -0.6,-0.6 -1.5,-0.6 -2.1,0 -0.6,0.6 -0.6,1.5 0,2.1 1.7,1.8 2.7,4.2 2.7,6.7 z"
   id="path3" />
	<path
   class="st2"
   d="m 26,30 c 0.3,0.3 0.7,0.4 1.1,0.4 0.4,0 0.8,-0.1 1.1,-0.4 0.6,-0.6 0.6,-1.5 0,-2.1 -1,-1 -1.6,-2.4 -1.6,-3.9 0,-1.5 0.6,-2.9 1.6,-3.9 0.6,-0.6 0.6,-1.5 0,-2.1 -0.6,-0.6 -1.5,-0.6 -2.1,0 -1.6,1.6 -2.5,3.7 -2.5,6 -0.1,2.3 0.8,4.4 2.4,6 z"
   id="path4" />
	<path
   class="st2"
   d="m 22,33.3 c 0.4,0 0.8,-0.1 1.1,-0.4 0.6,-0.6 0.6,-1.5 0,-2.1 -1.8,-1.8 -2.8,-4.2 -2.8,-6.7 0,-2.5 1,-4.9 2.8,-6.7 0.6,-0.6 0.6,-1.5 0,-2.1 -0.6,-0.6 -1.5,-0.6 -2.1,0 -2.4,2.4 -3.7,5.5 -3.7,8.8 0,3.3 1.3,6.5 3.7,8.8 0.2,0.2 0.6,0.4 1,0.4 z"
   id="path5" />
	<path
   class="st2"
   d="m 33.4,30 c -0.2,-0.6 -0.8,-0.9 -1.4,-0.9 -0.6,0 -1.2,0.4 -1.4,0.9 l -10,24.4 c -0.3,0.8 0.1,1.6 0.8,2 0.8,0.3 1.6,-0.1 2,-0.8 L 26.9,47 c 0,0 0.1,0 0.1,0 h 10 c 0,0 0.1,0 0.1,0 l 3.5,8.6 c 0.2,0.6 0.8,0.9 1.4,0.9 0.2,0 0.4,0 0.6,-0.1 0.8,-0.3 1.1,-1.2 0.8,-2 z M 32,34.5 33.4,38 h -2.8 z m -3.9,9.5 1.2,-3 h 5.3 l 1.2,3 z"
   id="path6" />
</g><g
     id="foreground"><g
       id="radio_waves"><circle
         class="st3"
         cx="32"
         cy="22"
         r="2.3"
         id="circle6" /><path
         class="st4"
         d="m 36.9,17.1 c 2.7,2.7 2.7,7.2 0,9.9"
         id="path7" /><path
         class="st4"
         d="m 42,14.2 c 4.3,4.3 4.3,11.3 0,15.6"
         id="path8" /><path
         class="st4"
         d="m 27.1,17.1 c -2.7,2.7 -2.7,7.2 0,9.9"
         id="path9" /><path
         class="st4"
         d="m 22,14.2 c -4.3,4.3 -4.3,11.3 0,15.6"
         id="path10" /></g><g
       id="tower"><path
         class="st5"
         d="M 32,29"
         id="path11" /><polyline
         class="st6"
         points="22,53 32,28.6 42,53 "
         id="polyline12"
         style="fill:none;fill-opacity:1" /><line
         class="st4"
         x1="29"
         y1="37.5"
         x2="35"
         y2="37.5"
         id="line12" /><line
         class="st4"
         x1="27"
         y1="43.5"
         x2="37"
         y2="43.5"
         id="line13"
         style="fill:#9bd1e5;fill-opacity:1" /></g></g></g>
</svg>
