<?xml version="1.0" encoding="UTF-8" standalone="no"?>
<svg
   version="1.1"
   id="Layer_1"
   x="0px"
   y="0px"
   viewBox="0 0 64 64"
   style="enable-background:new 0 0 64 64;"
   xml:space="preserve"
   sodipodi:docname="appiconfg.svg"
   inkscape:version="1.3.2 (091e20e, 2023-11-25, custom)"
   xmlns:inkscape="http://www.inkscape.org/namespaces/inkscape"
   xmlns:sodipodi="http://sodipodi.sourceforge.net/DTD/sodipodi-0.dtd"
   xmlns="http://www.w3.org/2000/svg"
   xmlns:svg="http://www.w3.org/2000/svg"><defs
   id="defs13" /><sodipodi:namedview
   id="namedview13"
   pagecolor="#505050"
   bordercolor="#eeeeee"
   borderopacity="1"
   inkscape:showpageshadow="0"
   inkscape:pageopacity="0"
   inkscape:pagecheckerboard="0"
   inkscape:deskcolor="#505050"
   inkscape:zoom="12.959941"
   inkscape:cx="21.02633"
   inkscape:cy="31.98317"
   inkscape:window-width="1920"
   inkscape:window-height="1009"
   inkscape:window-x="-8"
   inkscape:window-y="131"
   inkscape:window-maximized="1"
   inkscape:current-layer="Layer_1" />
<style
   type="text/css"
   id="style1">
	.st1{opacity:0.2;}
	.st2{fill:#231F20;}
	.st3{fill:#DB3A34;}
	.st4{fill:none;stroke:#DB3A34;stroke-width:3;stroke-linecap:round;stroke-miterlimit:10;}
	.st5{fill:none;stroke:#DB3A34;stroke-width:2;stroke-linecap:round;stroke-miterlimit:10;}
	.st6{fill:none;stroke:#DB3A34;stroke-width:3;stroke-linecap:round;stroke-linejoin:round;stroke-miterlimit:10;}
</style>
<g
   id="icon"><g
     class="st1"
     id="shadows">
	<circle
   class="st2"
   cx="32"
   cy="24"
   r="2.3"
   id="circle2" />
	<path
   class="st2"
   d="M35.9,30c0.3,0.3,0.7,0.4,1.1,0.4s0.8-0.1,1.1-0.4c1.6-1.6,2.5-3.7,2.5-6c0-2.3-0.9-4.4-2.5-6   c-0.6-0.6-1.5-0.6-2.1,0c-0.6,0.6-0.6,1.5,0,2.1c1,1,1.6,2.4,1.6,3.9c0,1.5-0.6,2.9-1.6,3.9C35.3,28.5,35.3,29.4,35.9,30z"
   id="path2" />
	<path
   class="st2"
   d="M43.7,24c0,2.5-1,4.9-2.8,6.7c-0.6,0.6-0.6,1.5,0,2.1c0.3,0.3,0.7,0.4,1.1,0.4c0.4,0,0.8-0.1,1.1-0.4   c2.4-2.4,3.7-5.5,3.7-8.8s-1.3-6.5-3.7-8.8c-0.6-0.6-1.5-0.6-2.1,0c-0.6,0.6-0.6,1.5,0,2.1C42.7,19.1,43.7,21.5,43.7,24z"
   id="path3" />
	<path
   class="st2"
   d="M26,30c0.3,0.3,0.7,0.4,1.1,0.4s0.8-0.1,1.1-0.4c0.6-0.6,0.6-1.5,0-2.1c-1-1-1.6-2.4-1.6-3.9   c0-1.5,0.6-2.9,1.6-3.9c0.6-0.6,0.6-1.5,0-2.1c-0.6-0.6-1.5-0.6-2.1,0c-1.6,1.6-2.5,3.7-2.5,6C23.5,26.3,24.4,28.4,26,30z"
   id="path4" />
	<path
   class="st2"
   d="M22,33.3c0.4,0,0.8-0.1,1.1-0.4c0.6-0.6,0.6-1.5,0-2.1c-1.8-1.8-2.8-4.2-2.8-6.7s1-4.9,2.8-6.7   c0.6-0.6,0.6-1.5,0-2.1c-0.6-0.6-1.5-0.6-2.1,0c-2.4,2.4-3.7,5.5-3.7,8.8s1.3,6.5,3.7,8.8C21.2,33.1,21.6,33.3,22,33.3z"
   id="path5" />
	<path
   class="st2"
   d="M33.4,30c-0.2-0.6-0.8-0.9-1.4-0.9c-0.6,0-1.2,0.4-1.4,0.9l-10,24.4c-0.3,0.8,0.1,1.6,0.8,2   c0.8,0.3,1.6-0.1,2-0.8l3.5-8.6c0,0,0.1,0,0.1,0h10c0,0,0.1,0,0.1,0l3.5,8.6c0.2,0.6,0.8,0.9,1.4,0.9c0.2,0,0.4,0,0.6-0.1   c0.8-0.3,1.1-1.2,0.8-2L33.4,30z M32,34.5l1.4,3.5h-2.8L32,34.5z M28.1,44l1.2-3h5.3l1.2,3H28.1z"
   id="path6" />
</g><g
     id="foreground"><g
       id="radio_waves"><circle
         class="st3"
         cx="32"
         cy="22"
         r="2.3"
         id="circle6" /><path
         class="st4"
         d="M36.9,17.1c2.7,2.7,2.7,7.2,0,9.9"
         id="path7" /><path
         class="st4"
         d="M42,14.2c4.3,4.3,4.3,11.3,0,15.6"
         id="path8" /><path
         class="st4"
         d="M27.1,17.1c-2.7,2.7-2.7,7.2,0,9.9"
         id="path9" /><path
         class="st4"
         d="M22,14.2c-4.3,4.3-4.3,11.3,0,15.6"
         id="path10" /></g><g
       id="tower"><path
         class="st5"
         d="M32,29"
         id="path11" /><polyline
         class="st6"
         points="22,53 32,28.6 42,53 "
         id="polyline12"
         style="fill:none;fill-opacity:1" /><line
         class="st4"
         x1="29"
         y1="37.5"
         x2="35"
         y2="37.5"
         id="line12" /><line
         class="st4"
         x1="27"
         y1="43.5"
         x2="37"
         y2="43.5"
         id="line13"
         style="fill:#9bd1e5;fill-opacity:1" /></g></g></g>
</svg>
