<?xml version="1.0" encoding="UTF-8" standalone="no"?>
<svg
   height="1024"
   width="1024"
   version="1.1"
   id="svg1"
   sodipodi:docname="splash.svg"
   inkscape:version="1.3.2 (091e20e, 2023-11-25, custom)"
   xmlns:inkscape="http://www.inkscape.org/namespaces/inkscape"
   xmlns:sodipodi="http://sodipodi.sourceforge.net/DTD/sodipodi-0.dtd"
   xmlns="http://www.w3.org/2000/svg"
   xmlns:svg="http://www.w3.org/2000/svg">
  <defs
     id="defs1" />
  <sodipodi:namedview
     id="namedview1"
     pagecolor="#505050"
     bordercolor="#eeeeee"
     borderopacity="1"
     inkscape:showpageshadow="0"
     inkscape:pageopacity="0"
     inkscape:pagecheckerboard="0"
     inkscape:deskcolor="#505050"
     inkscape:zoom="0.80999633"
     inkscape:cx="398.76724"
     inkscape:cy="470.98979"
     inkscape:window-width="2560"
     inkscape:window-height="1369"
     inkscape:window-x="1912"
     inkscape:window-y="369"
     inkscape:window-maximized="1"
     inkscape:current-layer="svg1"
     showgrid="false" />
  <g
     class="st1"
     id="g6"
     style="opacity:0.2"
     transform="matrix(14.050168,0,0,14.050168,52.386846,21.465762)">
	<circle
   class="st2"
   cx="32"
   cy="24"
   r="2.3"
   id="circle2"
   style="fill:#231f20" />

	<path
   class="st2"
   d="m 35.9,30 c 0.3,0.3 0.7,0.4 1.1,0.4 0.4,0 0.8,-0.1 1.1,-0.4 1.6,-1.6 2.5,-3.7 2.5,-6 0,-2.3 -0.9,-4.4 -2.5,-6 -0.6,-0.6 -1.5,-0.6 -2.1,0 -0.6,0.6 -0.6,1.5 0,2.1 1,1 1.6,2.4 1.6,3.9 0,1.5 -0.6,2.9 -1.6,3.9 -0.7,0.6 -0.7,1.5 -0.1,2.1 z"
   id="path2"
   style="fill:#231f20" />

	<path
   class="st2"
   d="m 43.7,24 c 0,2.5 -1,4.9 -2.8,6.7 -0.6,0.6 -0.6,1.5 0,2.1 0.3,0.3 0.7,0.4 1.1,0.4 0.4,0 0.8,-0.1 1.1,-0.4 2.4,-2.4 3.7,-5.5 3.7,-8.8 0,-3.3 -1.3,-6.5 -3.7,-8.8 -0.6,-0.6 -1.5,-0.6 -2.1,0 -0.6,0.6 -0.6,1.5 0,2.1 1.7,1.8 2.7,4.2 2.7,6.7 z"
   id="path3"
   style="fill:#231f20" />

	<path
   class="st2"
   d="m 26,30 c 0.3,0.3 0.7,0.4 1.1,0.4 0.4,0 0.8,-0.1 1.1,-0.4 0.6,-0.6 0.6,-1.5 0,-2.1 -1,-1 -1.6,-2.4 -1.6,-3.9 0,-1.5 0.6,-2.9 1.6,-3.9 0.6,-0.6 0.6,-1.5 0,-2.1 -0.6,-0.6 -1.5,-0.6 -2.1,0 -1.6,1.6 -2.5,3.7 -2.5,6 -0.1,2.3 0.8,4.4 2.4,6 z"
   id="path4"
   style="fill:#231f20" />

	<path
   class="st2"
   d="m 22,33.3 c 0.4,0 0.8,-0.1 1.1,-0.4 0.6,-0.6 0.6,-1.5 0,-2.1 -1.8,-1.8 -2.8,-4.2 -2.8,-6.7 0,-2.5 1,-4.9 2.8,-6.7 0.6,-0.6 0.6,-1.5 0,-2.1 -0.6,-0.6 -1.5,-0.6 -2.1,0 -2.4,2.4 -3.7,5.5 -3.7,8.8 0,3.3 1.3,6.5 3.7,8.8 0.2,0.2 0.6,0.4 1,0.4 z"
   id="path5"
   style="fill:#231f20" />

	<path
   class="st2"
   d="m 33.4,30 c -0.2,-0.6 -0.8,-0.9 -1.4,-0.9 -0.6,0 -1.2,0.4 -1.4,0.9 l -10,24.4 c -0.3,0.8 0.1,1.6 0.8,2 0.8,0.3 1.6,-0.1 2,-0.8 L 26.9,47 c 0,0 0.1,0 0.1,0 h 10 c 0,0 0.1,0 0.1,0 l 3.5,8.6 c 0.2,0.6 0.8,0.9 1.4,0.9 0.2,0 0.4,0 0.6,-0.1 0.8,-0.3 1.1,-1.2 0.8,-2 z M 32,34.5 33.4,38 h -2.8 z m -3.9,9.5 1.2,-3 h 5.3 l 1.2,3 z"
   id="path6"
   style="fill:#231f20" />

</g>
  <circle
     class="st3"
     cx="501.99188"
     cy="330.56958"
     r="32.315388"
     id="circle6"
     style="fill:#4f5d73;stroke-width:14.0502" />
  <path
     class="st4"
     d="m 570.83806,261.72364 c 37.93546,37.93546 37.93546,101.16121 0,139.09667"
     id="path7"
     style="fill:none;stroke:#4f5d73;stroke-width:42.1505;stroke-linecap:round;stroke-miterlimit:10" />
  <path
     class="st4"
     d="m 642.49392,220.97815 c 60.41573,60.41573 60.41573,158.76691 0,219.18263"
     id="path8"
     style="fill:none;stroke:#4f5d73;stroke-width:42.1505;stroke-linecap:round;stroke-miterlimit:10" />
  <path
     class="st4"
     d="m 433.14641,261.72364 c -37.93545,37.93546 -37.93545,101.16121 0,139.09667"
     id="path9"
     style="fill:none;stroke:#4f5d73;stroke-width:42.1505;stroke-linecap:round;stroke-miterlimit:10" />
  <path
     class="st4"
     d="m 361.49055,220.97815 c -60.41572,60.41573 -60.41572,158.76691 0,219.18263"
     id="path10"
     style="fill:none;stroke:#4f5d73;stroke-width:42.1505;stroke-linecap:round;stroke-miterlimit:10" />
  <path
     class="st5"
     d="M 501.99224,428.92065"
     id="path11"
     style="fill:none;stroke:#4f5d73;stroke-width:28.1003;stroke-linecap:round;stroke-miterlimit:10" />
  <path
     class="st4"
     d="M 501.99224,330.56947"
     id="path12"
     style="fill:none;stroke:#4f5d73;stroke-width:42.1505;stroke-linecap:round;stroke-miterlimit:10" />
  <polyline
     class="st6"
     points="22,53 32,28.6 42,53 "
     id="polyline12"
     style="fill:none;fill-opacity:1;stroke:#4f5d73;stroke-width:3;stroke-linecap:round;stroke-linejoin:round;stroke-miterlimit:10"
     transform="matrix(14.050168,0,0,14.050168,52.386846,21.465762)" />
  <line
     class="st4"
     x1="459.84137"
     y1="548.34717"
     x2="544.14233"
     y2="548.34717"
     id="line12"
     style="fill:none;stroke:#4f5d73;stroke-width:42.1505;stroke-linecap:round;stroke-miterlimit:10" />
  <line
     class="st4"
     x1="431.741"
     y1="632.64819"
     x2="572.24268"
     y2="632.64819"
     id="line13"
     style="fill:#9bd1e5;fill-opacity:1;stroke:#4f5d73;stroke-width:42.1505;stroke-linecap:round;stroke-miterlimit:10" />
</svg>
