<?xml version="1.0" encoding="UTF-8" standalone="no"?>
<svg
   height="1024"
   width="1024"
   version="1.1"
   id="svg1"
   sodipodi:docname="splash.svg"
   inkscape:version="1.3.2 (091e20e, 2023-11-25, custom)"
   xmlns:inkscape="http://www.inkscape.org/namespaces/inkscape"
   xmlns:sodipodi="http://sodipodi.sourceforge.net/DTD/sodipodi-0.dtd"
   xmlns="http://www.w3.org/2000/svg"
   xmlns:svg="http://www.w3.org/2000/svg">
  <defs
     id="defs1" />
  <sodipodi:namedview
     id="namedview1"
     pagecolor="#505050"
     bordercolor="#eeeeee"
     borderopacity="1"
     inkscape:showpageshadow="0"
     inkscape:pageopacity="0"
     inkscape:pagecheckerboard="0"
     inkscape:deskcolor="#505050"
     inkscape:zoom="1.1455078"
     inkscape:cx="512"
     inkscape:cy="512"
     inkscape:window-width="2560"
     inkscape:window-height="1369"
     inkscape:window-x="1912"
     inkscape:window-y="369"
     inkscape:window-maximized="1"
     inkscape:current-layer="svg1" />
  <path
     d="m 358.12816,415.58788 c 11.901,-12.2295 11.901,-32.04826 0,-44.27775 -15.39075,-15.837 -22.98225,-36.31275 -23.02875,-57.093 0.0465,-20.8275 7.63725,-41.27925 23.02875,-57.13951 11.901,-12.25274 11.901,-32.07299 0,-44.30174 -5.9505,-6.138 -13.704,-9.20625 -21.5295,-9.20625 -7.77825,0 -15.603,3.02175 -21.5535,9.15975 -27.1995,27.97275 -40.97475,64.82475 -40.9275,101.48774 -0.0465,36.59401 13.72875,73.44525 40.9275,101.37076 11.901,12.2295 31.182,12.2295 43.083,0 z M 239.81941,147.39013 c -6.09075,-6.23175 -14.01,-9.34725 -21.975,-9.34725 -7.9185,0 -15.88425,3.1155 -21.92775,9.34725 -44.817,46.01175 -67.35375,106.5015 -67.30725,166.82699 -0.0465,60.25576 22.49025,120.86251 67.26075,166.82776 12.13575,12.46349 31.767,12.46349 43.90275,0 12.0885,-12.44025 12.0885,-32.63475 0,-45.05025 -32.775,-33.735 -49.08,-77.592 -49.08,-121.776 0,-44.184 16.305,-88.08675 49.08,-121.776 12.0885,-12.48825 12.0885,-32.68275 0.0465,-45.0525 z m 272.9535,245.02875 c 43.01325,0 77.967,-34.9305 77.967,-77.967 0,-43.0365 -34.95375,-77.96625 -77.967,-77.96625 -43.03575,0 -77.967,34.92975 -77.967,77.96625 7.5e-4,43.0365 34.93125,77.967 77.967,77.967 z m 315.381,-244.56 c -12.13575,-12.4635 -31.76625,-12.4635 -43.85625,0 -12.13575,12.44025 -12.13575,32.63475 0,45.051 32.751,33.6885 49.05675,77.592 49.05675,121.776 0,44.1375 -16.35375,88.04025 -49.10475,121.7295 -12.08775,12.4635 -12.08775,32.68125 0.0465,45.051 6.04425,6.23175 13.962,9.34725 21.92775,9.34725 7.9185,0 15.8835,-3.1155 21.927,-9.34725 44.7945,-45.96525 67.3305,-106.572 67.23675,-166.82775 0.0968,-60.2085 -22.44,-120.81525 -67.23375,-166.77975 z m -315.1935,306.8295 v 0 c -19.86675,0.0465 -39.78,-4.8495 -57.81825,-14.57175 l -150.84975,402.1095 h 71.40675 l 41.11425,-47.97975 h 191.91825 l 40.48275,47.97975 h 71.454 L 569.84266,440.21038 c -17.805,9.582 -37.29675,14.478 -56.88225,14.478 z m -0.46875,22.98299 48.261,172.63726 h -95.95875 z m -95.6775,268.59601 47.9805,-47.97975 h 95.958 l 47.9805,47.97975 z m 249.081,-532.95225 c -11.901,12.2295 -11.901,32.04825 0,44.27775 15.36825,15.837 22.95825,36.38325 23.0055,57.093 -0.0465,20.8275 -7.63725,41.3265 -23.0055,57.14025 -11.901,12.252 -11.901,32.07225 0,44.301 5.90325,6.138 13.6815,9.15975 21.55275,9.15975 7.73175,0 15.55575,-3.02175 21.50625,-9.15975 27.2235,-27.9255 40.99875,-64.82475 40.905,-101.44125 0.0937,-36.594 -13.63575,-73.44525 -40.905,-101.37075 -11.85375,-12.2295 -31.158,-12.2295 -43.059,0 z"
     id="path1"
     style="stroke-width:0.75" />
</svg>
